<svg width="610" height="120" viewBox="0 0 610 120" fill="none" xmlns="http://www.w3.org/2000/svg">
<path d="M305 116.75C298.167 110.75 290.646 106.104 282.438 102.812C274.229 99.5208 265.875 97.875 257.375 97.875V42.625C265.958 42.625 274.292 44.2708 282.375 47.5625C290.458 50.8542 298 55.5 305 61.5C312 55.5 319.542 50.8542 327.625 47.5625C335.708 44.2708 344.042 42.625 352.625 42.625V97.875C344.125 97.875 335.771 99.5208 327.562 102.812C319.354 106.104 311.833 110.75 305 116.75ZM305 102.875C310.333 98.7917 315.979 95.4583 321.938 92.875C327.896 90.2917 334.208 88.5417 340.875 87.625V55.625C335.375 56.2083 329.625 58.1667 323.625 61.5C317.625 64.8333 311.417 69.5 305 75.5C298.333 69.5 292.104 64.8958 286.312 61.6875C280.521 58.4792 274.833 56.4583 269.25 55.625V87.625C275.583 88.4583 281.75 90.1667 287.75 92.75C293.75 95.3333 299.5 98.7083 305 102.875ZM305.375 43.5C299.625 43.5 294.75 41.5 290.75 37.5C286.75 33.5 284.75 28.625 284.75 22.875C284.75 17.0417 286.729 12.125 290.688 8.125C294.646 4.125 299.542 2.125 305.375 2.125C311.125 2.125 316 4.125 320 8.125C324 12.125 326 17.0417 326 22.875C326 28.625 324.021 33.5 320.062 37.5C316.104 41.5 311.208 43.5 305.375 43.5ZM305.5 33.125C308.333 33.125 310.75 32.125 312.75 30.125C314.75 28.125 315.75 25.7083 315.75 22.875C315.75 19.9583 314.729 17.5 312.688 15.5C310.646 13.5 308.167 12.5 305.25 12.5C302.417 12.5 300 13.5208 298 15.5625C296 17.6042 295 20.0417 295 22.875C295 25.7083 296.021 28.125 298.063 30.125C300.104 32.125 302.583 33.125 305.5 33.125Z" fill="#2A3E2C"/>
</svg>
